<?xml version="1.0" encoding="utf-8"?>
<!DOCTYPE svg PUBLIC "-//W3C//DTD SVG 1.1//EN" "http://www.w3.org/Graphics/SVG/1.1/DTD/svg11.dtd">
<svg version="1.1" id="logo" 
    xmlns="http://www.w3.org/2000/svg" 
    xmlns:xlink="http://www.w3.org/1999/xlink" x="0px" y="0px" width="122.124px" height="150px" viewBox="0 0 122.124 150" enable-background="new 0 0 122.124 150" xml:space="preserve">
    <polygon fill="blue" points="116.921,3.288 25.752,3.288 2.803,3.288 2.803,144.71 27.084,144.71 27.084,30.878 116.921,30.878" />
    <polygon fill="#00F" points="63.308,75.153 116.921,75.153 116.921,50.566 40.359,50.566 40.359,133.518 40.359,133.761 116.921,133.761 116.921,109.171 63.308,109.171" />
    <path fill="red" d="M119.628,136.383H37.557v2.664h84.568v-33.165h-2.496V136.383z M119.628,0v33.499H29.793v113.833H0V150	h32.287V36.167h89.837V0H119.628z M119.628,77.777H66.015v25.438h2.496V80.442h53.613V47.279h-2.496V77.777z" />
</svg>